<?xml version="1.0" standalone="no"?>
<!DOCTYPE svg PUBLIC "-//W3C//DTD SVG 20010904//EN"
 "http://www.w3.org/TR/2001/REC-SVG-20010904/DTD/svg10.dtd">
<svg version="1.0" xmlns="http://www.w3.org/2000/svg"
 width="750.000000pt" height="750.000000pt" viewBox="0 0 750.000000 750.000000"
 preserveAspectRatio="xMidYMid meet">
<metadata>
Created by potrace 1.11, written by Peter Selinger 2001-2013
</metadata>
<g transform="translate(0.000000,750.000000) scale(0.100000,-0.100000)"
fill="#000000" stroke="none">
<path d="M3460 7483 c-399 -40 -729 -116 -1055 -243 -749 -294 -1386 -822
-1817 -1507 -101 -161 -271 -507 -336 -683 -309 -839 -309 -1771 0 -2610 65
-176 235 -522 336 -683 568 -902 1506 -1534 2532 -1706 415 -70 885 -70 1300
0 730 122 1446 492 1985 1025 308 304 535 622 730 1019 180 367 278 674 340
1072 24 150 25 181 25 578 0 397 -1 428 -25 578 -62 398 -160 705 -340 1072
-195 397 -422 715 -730 1019 -608 602 -1390 970 -2250 1061 -127 13 -589 19
-695 8z m-1284 -1334 c32 -33 37 -46 57 -147 l21 -112 1496 0 1496 0 21 112
c20 101 25 114 57 147 l36 36 213 3 c198 2 214 1 245 -18 57 -35 74 -74 69
-160 -9 -140 -75 -406 -152 -617 -50 -134 -199 -435 -280 -563 -217 -344 -506
-654 -854 -918 -214 -163 -395 -276 -686 -427 -324 -168 -533 -302 -759 -487
-20 -17 10 -18 589 -18 l610 0 -50 43 c-27 23 -63 53 -78 67 l-29 25 160 92
c88 50 213 126 276 168 116 77 116 77 142 60 51 -33 352 -342 441 -451 251
-311 424 -622 550 -989 61 -181 123 -456 123 -550 0 -49 -29 -98 -72 -125 -31
-19 -47 -20 -245 -18 l-213 3 -36 36 c-33 33 -38 47 -58 145 l-21 109 -1497 3
-1496 2 -18 -100 c-20 -112 -38 -151 -86 -180 -30 -18 -51 -20 -233 -20 -182
0 -203 2 -233 20 -75 46 -85 103 -52 286 70 387 242 799 481 1149 219 322 563
668 893 898 147 103 139 87 65 137 -505 341 -923 809 -1178 1319 -141 281
-263 678 -278 901 -5 86 12 125 69 160 31 19 47 20 245 18 l213 -3 36 -36z"/>
<path d="M2500 5273 c1 -10 81 -138 145 -231 l50 -72 1055 0 1055 0 51 73 c57
82 144 220 144 230 0 4 -562 7 -1250 7 -687 0 -1250 -3 -1250 -7z"/>
<path d="M3150 4497 c146 -114 204 -157 305 -224 143 -95 276 -173 297 -173
44 0 481 291 603 401 5 5 -261 9 -605 9 -485 -1 -612 -3 -600 -13z"/>
<path d="M2634 2432 c-62 -89 -134 -205 -134 -216 0 -3 560 -6 1245 -6 808 0
1245 3 1245 10 0 14 -73 131 -138 223 l-56 77 -1050 0 -1051 0 -61 -88z"/>
</g>
</svg>
